<?xml version="1.0" encoding="UTF-8" standalone="no"?>
<!-- Created with Inkscape (http://www.inkscape.org/) -->

<svg
   xmlns:dc="http://purl.org/dc/elements/1.1/"
   xmlns:cc="http://creativecommons.org/ns#"
   xmlns:rdf="http://www.w3.org/1999/02/22-rdf-syntax-ns#"
   xmlns:svg="http://www.w3.org/2000/svg"
   xmlns="http://www.w3.org/2000/svg"
   xmlns:sodipodi="http://sodipodi.sourceforge.net/DTD/sodipodi-0.dtd"
   xmlns:inkscape="http://www.inkscape.org/namespaces/inkscape"
   width="200"
   height="50"
   id="svg3380"
   version="1.1"
   inkscape:version="0.48.4 r9939"
   sodipodi:docname="New document 2">
  <defs
     id="defs3382" />
  <sodipodi:namedview
     id="base"
     pagecolor="#ffffff"
     bordercolor="#666666"
     borderopacity="1.0"
     inkscape:pageopacity="0.0"
     inkscape:pageshadow="2"
     inkscape:zoom="0.35"
     inkscape:cx="375"
     inkscape:cy="-423.62264"
     inkscape:document-units="px"
     inkscape:current-layer="layer1"
     showgrid="false"
     fit-margin-top="0"
     fit-margin-left="0"
     fit-margin-right="0"
     fit-margin-bottom="0"
     inkscape:window-width="1366"
     inkscape:window-height="721"
     inkscape:window-x="-2"
     inkscape:window-y="-3"
     inkscape:window-maximized="1" />
  <metadata
     id="metadata3385">
    <rdf:RDF>
      <cc:Work
         rdf:about="">
        <dc:format>image/svg+xml</dc:format>
        <dc:type
           rdf:resource="http://purl.org/dc/dcmitype/StillImage" />
        <dc:title></dc:title>
      </cc:Work>
    </rdf:RDF>
  </metadata>
  <g
     inkscape:label="Layer 1"
     inkscape:groupmode="layer"
     id="layer1"
     transform="translate(0,-2.362183)">
    <path
       d="M 18.512393,52.362183 C 21.053272,47.308409 22.903905,42.123504 23.232392,36.57905 23.533873,34.538761 22.283997,34.504547 22.095571,35.941506 18.497919,49.585603 -0.64146405,45.890928 0.01656991,33.056974 0.55051644,22.648742 10.97748,20.409559 16.416498,23.812754 c 2.147789,1.253719 2.026438,0.50279 0.854227,-0.797823 -8.0796303,-8.935284 -3.186117,-20.4421292 7.732252,-20.652748 11.80825,0.6942719 14.872132,13.01154 7.628993,20.25539 -0.900737,0.870319 -2.897874,3.667532 0.108554,1.711813 7.313567,-5.152152 17.463406,0.387506 17.256358,8.330904 C 49.615,47.307254 31.605204,48.399637 27.75364,36.165443 c -0.370497,-1.356439 -1.437773,-2.037629 -1.142911,0.266244 0.533859,4.170925 1.638466,10.459562 4.798812,15.930496 z"
       id="path3235"
       style="fill:#000000;fill-opacity:1;display:inline"
       inkscape:connector-curvature="0" />
    <path
       d="m 62.22461,2.5338826 c 7.574211,-0.4097 11.522894,4.8602 12.293462,9.0137004 0.459499,0.6597 0.711089,0.4739 0.887298,-0.036 0.370334,-5.3325004 6.228686,-9.6907004 11.654573,-9.0947004 8.829511,0.094 14.195817,8.0973004 12.687015,14.8714004 -1.843192,8.2754 -7.315199,13.2584 -11.458644,18.3903 -4.687551,5.3137 -10.997343,12.9894 -13.030209,16.6836 0,0 -6.412528,-7.9497 -14.755292,-17.2991 -5.578665,-6.2517 -10.043569,-13.0262 -10.459175,-18.8587 C 49.568765,9.5406826 52.926694,3.5672826 62.22461,2.5343826 z"
       id="path8512"
       style="fill:#d40000;fill-opacity:1;display:inline"
       inkscape:connector-curvature="0" />
    <path
       d="m 122.77185,37.005169 c 0.0157,-1.705914 -1.66018,-1.73853 -1.64114,-0.493315 -0.14051,6.255919 -6.71322,9.336266 -11.48838,8.605554 -7.36147,-1.126466 -9.711013,-7.008309 -9.64081,-10.472308 0.21678,-10.692015 13.58839,-18.576182 25.65409,-32.282917 8.84085,12.371613 23.43291,22.088916 24.29679,31.652301 1.14846,12.714603 -18.84168,17.457208 -21.69583,2.638167 -0.18414,-1.046809 -1.71553,-1.516779 -1.59668,-0.05474 0.43367,4.061275 -0.18298,5.75292 5.50921,15.764271 l -14.87936,0 c 3.29535,-4.677954 5.25779,-10.421067 5.48211,-15.356981 z"
       id="path7940"
       style="fill:#000000;fill-opacity:1;display:inline"
       inkscape:connector-curvature="0" />
    <path
       d="M 150,27.557501 C 161.15855,19.530647 168.48695,10.778827 175.49542,2.362183 181.64161,11.62318 190.46159,19.725317 200,27.557501 189.7947,35.324937 181.88535,43.630609 175.52596,52.362183 168.47631,43.411545 161.05456,35.306366 150,27.557501 z"
       id="path3692"
       style="fill:#d40000;fill-opacity:1;display:inline"
       inkscape:connector-curvature="0" />
  </g>
</svg>
